<svg xmlns="http://www.w3.org/2000/svg" version="1.1" xmlns:xlink="http://www.w3.org/1999/xlink" viewBox="0 0 14.393686580260631 9.056852741773222"><g transform="matrix(1,0,0,1,0.9463550088803157,6.986230154767906)"><rect width="14.393686580260631" height="14.393686580260631" x="-0.9463550088803157" y="-9.65464707401161" fill="#ffffff"></rect><g clip-path="url(#SvgjsClipPath1006)"><g clip-path="url(#SvgjsClipPath100083c03954-9bd5-4500-b193-7bf4d2d60f14)"><path d=" M 9.97900424274627 -1.0281497975305003 C 8.896282678147934 -1.3530300808806786 7.6782083231121705 -1.2336307831126758 7.493326935082091 -1.3774473212399858 C 7.308445547052011 -1.521263859367295 9.362695631201166 -2.75372434638917 9.383284033319814 -4.171234152942908 C 9.424225733454609 -6.99009875557882 5.820494073216861 -6.221118018045695 3.939358976539494 -4.479388458715459 C 1.720726343011289 -2.4251495699997556 0.8374066436305702 -0.256191074699081 0.8374066436305702 -0.256191074699081 C 0.8374066436305702 -0.256191074699081 2.9898630700226616 -2.4957927550833086 4.1405073293756605 -3.20749765507484 C 6.133160138670663 -4.440114878165048 7.267391892582697 -4.541064101603778 7.411163648976198 -4.335594311455054 C 7.5878163934188905 -4.083114896240428 7.493326935082094 -3.759499696870352 6.856519484885962 -3.041402204377599 C 6.157196734292595 -2.2527622857023633 5.21308583126628 -2.096395666675108 5.418488448814293 -0.8432572140669681 C 5.5814827644452665 0.15089727649080054 7.271063994755028 -0.3787586801340659 8.150733982830321 -0.494082840125456 C 9.403827653704653 -0.6583870214703422 11.663558723435987 -0.2886130499767319 11.663558723435987 -0.2886130499767319 C 11.663558723435987 -0.2886130499767319 11.211565488669219 -0.6583534351699845 9.97900424274627 -1.0281497975305003 Z" fill="#c84449" transform="matrix(1,0,0,1,0,0)" fill-rule="nonzero"></path></g><g clip-path="url(#SvgjsClipPath100083c03954-9bd5-4500-b193-7bf4d2d60f14)"><path d=" M 4.140507329375659 -2.0553644030726943 C 3.9019152631456273 -2.055358464844626 3.6730979931137733 -1.9605709079413636 3.504394223887701 -1.7918545413609586 C 3.3356904546616284 -1.6231381747805536 3.2409199835010227 -1.3943138277269327 3.240931860622303 -1.1557217617186275 C 3.2409751385107626 -0.6589269316556363 3.6437124975808595 -0.25621463340262274 4.140507329375366 -0.25620227013253416 C 4.6372854221646715 -0.2562331817861594 5.039995909308125 -0.6589436689296129 5.04002682096175 -1.1557217617186275 C 5.040047606258822 -1.394306859756675 4.9452876799069765 -1.6231278993979679 4.776594086546982 -1.7918445879509752 C 4.607900493186989 -1.9605612765039835 4.379092428019939 -2.0553525268345885 4.140507329373868 -2.0553644030726943 Z" fill="#c84449" transform="matrix(1,0,0,1,0,0)" fill-rule="nonzero"></path></g></g><g><path d=" M 0.075439453125 0.5625000000000002 Q 0.075439453125 0.4848632812500002 0.0955810546875 0.4127197265625002 Q 0.11572265625 0.3405761718750002 0.154541015625 0.2783203125000002 Q 0.193359375 0.21606445312500022 0.249755859375 0.16479492187500022 Q 0.30615234375 0.11352539062500022 0.3782958984375 0.07690429687500022 Q 0.450439453125 0.04028320312500022 0.53759765625 0.020141601562500222 Q 0.624755859375 2.220446049250313e-16 0.72509765625 2.220446049250313e-16 Q 0.78955078125 2.220446049250313e-16 0.8485107421875 0.008056640625000222 Q 0.907470703125 0.016113281250000222 0.95947265625 0.030395507812500222 Q 1.011474609375 0.04467773437500022 1.0557861328125 0.06335449218750022 Q 1.10009765625 0.08203125000000022 1.135986328125 0.10253906250000022 L 1.072998046875 0.22558593750000022 Q 1.031982421875 0.20581054687500022 0.9796142578125 0.19226074218750022 Q 0.92724609375 0.17871093750000022 0.870849609375 0.17871093750000022 Q 0.79541015625 0.17871093750000022 0.73095703125 0.20581054687500022 Q 0.66650390625 0.23291015625000022 0.61962890625 0.2827148437500002 Q 0.57275390625 0.3325195312500002 0.5460205078125 0.4031982421875002 Q 0.519287109375 0.4738769531250002 0.519287109375 0.5617675781250002 Q 0.519287109375 0.6489257812500002 0.545654296875 0.7196044921875002 Q 0.572021484375 0.7902832031250002 0.6185302734375 0.8404541015625002 Q 0.6650390625 0.8906250000000002 0.7291259765625 0.9180908203125002 Q 0.793212890625 0.9455566406250002 0.867919921875 0.9455566406250002 L 0.867919921875 0.5771484375000002 L 1.294921875 0.5771484375000002 L 1.21875 0.7155761718750002 L 1.21875 1.0114746093750002 L 1.219482421875 1.0129394531250002 Q 1.18359375 1.0341796875000002 1.130859375 1.0539550781250002 Q 1.078125 1.0737304687500002 1.0133056640625 1.0894775390625002 Q 0.948486328125 1.1052246093750002 0.875244140625 1.1147460937500002 Q 0.802001953125 1.1242675781250002 0.72509765625 1.1242675781250002 Q 0.574951171875 1.1242675781250002 0.4544677734375 1.0799560546875002 Q 0.333984375 1.0356445312500002 0.249755859375 0.9591064453125002 Q 0.16552734375 0.8825683593750002 0.1204833984375 0.7803955078125002 Q 0.075439453125 0.6782226562500002 0.075439453125 0.5625000000000002 M 1.458251953125 0.017578125000000222 L 2.0859375 0.017578125000000222 Q 2.20751953125 0.017578125000000222 2.2987060546875 0.04321289062500022 Q 2.389892578125 0.06884765625000022 2.4510498046875 0.11499023437500022 Q 2.51220703125 0.16113281250000022 2.54296875 0.22558593750000022 Q 2.57373046875 0.2900390625000002 2.57373046875 0.3676757812500002 Q 2.57373046875 0.4636230468750002 2.5283203125 0.5379638671875002 Q 2.48291015625 0.6123046875000002 2.3935546875 0.6562500000000002 L 2.6220703125 1.1066894531250002 L 2.143798828125 1.1066894531250002 L 1.970947265625 0.7111816406250002 L 1.881591796875 0.7111816406250002 L 1.881591796875 1.1059570312500002 L 1.458251953125 1.1059570312500002 L 1.458251953125 0.017578125000000222 M 1.9072265625 0.5786132812500002 Q 1.959228515625 0.5786132812500002 2.000244140625 0.5639648437500002 Q 2.041259765625 0.5493164062500002 2.06982421875 0.5225830078125002 Q 2.098388671875 0.4958496093750002 2.11376953125 0.4588623046875002 Q 2.129150390625 0.4218750000000002 2.129150390625 0.3779296875000002 Q 2.129150390625 0.3339843750000002 2.11376953125 0.2969970703125002 Q 2.098388671875 0.2600097656250002 2.06982421875 0.23327636718750022 Q 2.041259765625 0.20654296875000022 2.000244140625 0.19189453125000022 Q 1.959228515625 0.17724609375000022 1.9072265625 0.17724609375000022 L 1.88232421875 0.17724609375000022 L 1.881591796875 0.5786132812500002 L 1.9072265625 0.5786132812500002 M 2.82421875 0.017578125000000222 L 3.744140625 0.017578125000000222 L 3.744140625 0.18530273437500022 L 3.248291015625 0.18530273437500022 L 3.24755859375 0.4790039062500002 L 3.626953125 0.4790039062500002 L 3.626953125 0.6467285156250002 L 3.24755859375 0.6467285156250002 L 3.24755859375 0.9382324218750002 L 3.744140625 0.9382324218750002 L 3.744140625 1.1059570312500002 L 2.82421875 1.1059570312500002 L 2.82421875 0.017578125000000222 M 3.961669921875 0.017578125000000222 L 4.881591796875 0.017578125000000222 L 4.881591796875 0.18530273437500022 L 4.3857421875 0.18530273437500022 L 4.385009765625 0.4790039062500002 L 4.764404296875 0.4790039062500002 L 4.764404296875 0.6467285156250002 L 4.385009765625 0.6467285156250002 L 4.385009765625 0.9382324218750002 L 4.881591796875 0.9382324218750002 L 4.881591796875 1.1059570312500002 L 3.961669921875 1.1059570312500002 L 3.961669921875 0.017578125000000222 M 5.09912109375 0.017578125000000222 L 5.3642578125 0.017578125000000222 L 6.054931640625 0.5976562500000002 L 6.0556640625 0.017578125000000222 L 6.216796875 0.017578125000000222 L 6.216796875 1.1059570312500002 L 5.95166015625 1.1059570312500002 L 5.26025390625 0.5280761718750002 L 5.26025390625 1.1059570312500002 L 5.09912109375 1.1059570312500002 L 5.09912109375 0.017578125000000222 M 6.385986328125 0.017578125000000222 L 6.849609375 0.017578125000000222 L 7.1044921875 0.7170410156250002 L 7.34033203125 0.017578125000000222 L 7.531494140625 0.016845703125000222 L 7.14990234375 1.1059570312500002 L 6.804931640625 1.1052246093750002 L 6.385986328125 0.017578125000000222 M 7.68017578125 0.017578125000000222 L 8.60009765625 0.017578125000000222 L 8.60009765625 0.18530273437500022 L 8.104248046875 0.18530273437500022 L 8.103515625 0.4790039062500002 L 8.48291015625 0.4790039062500002 L 8.48291015625 0.6467285156250002 L 8.103515625 0.6467285156250002 L 8.103515625 0.9382324218750002 L 8.60009765625 0.9382324218750002 L 8.60009765625 1.1059570312500002 L 7.68017578125 1.1059570312500002 L 7.68017578125 0.017578125000000222 M 8.817626953125 0.017578125000000222 L 9.4453125 0.017578125000000222 Q 9.56689453125 0.017578125000000222 9.6580810546875 0.04321289062500022 Q 9.749267578125 0.06884765625000022 9.8104248046875 0.11499023437500022 Q 9.87158203125 0.16113281250000022 9.90234375 0.22558593750000022 Q 9.93310546875 0.2900390625000002 9.93310546875 0.3676757812500002 Q 9.93310546875 0.4636230468750002 9.8876953125 0.5379638671875002 Q 9.84228515625 0.6123046875000002 9.7529296875 0.6562500000000002 L 9.9814453125 1.1066894531250002 L 9.503173828125 1.1066894531250002 L 9.330322265625 0.7111816406250002 L 9.240966796875 0.7111816406250002 L 9.240966796875 1.1059570312500002 L 8.817626953125 1.1059570312500002 L 8.817626953125 0.017578125000000222 M 9.2666015625 0.5786132812500002 Q 9.318603515625 0.5786132812500002 9.359619140625 0.5639648437500002 Q 9.400634765625 0.5493164062500002 9.42919921875 0.5225830078125002 Q 9.457763671875 0.4958496093750002 9.47314453125 0.4588623046875002 Q 9.488525390625 0.4218750000000002 9.488525390625 0.3779296875000002 Q 9.488525390625 0.3339843750000002 9.47314453125 0.2969970703125002 Q 9.457763671875 0.2600097656250002 9.42919921875 0.23327636718750022 Q 9.400634765625 0.20654296875000022 9.359619140625 0.19189453125000022 Q 9.318603515625 0.17724609375000022 9.2666015625 0.17724609375000022 L 9.24169921875 0.17724609375000022 L 9.240966796875 0.5786132812500002 L 9.2666015625 0.5786132812500002 M 10.119873046875 0.5625000000000002 Q 10.119873046875 0.4848632812500002 10.1400146484375 0.4127197265625002 Q 10.16015625 0.3405761718750002 10.198974609375 0.2783203125000002 Q 10.23779296875 0.21606445312500022 10.294189453125 0.16479492187500022 Q 10.3505859375 0.11352539062500022 10.4227294921875 0.07690429687500022 Q 10.494873046875 0.04028320312500022 10.58203125 0.020141601562500222 Q 10.669189453125 2.220446049250313e-16 10.76953125 2.220446049250313e-16 Q 10.833984375 2.220446049250313e-16 10.8929443359375 0.008056640625000222 Q 10.951904296875 0.016113281250000222 11.00390625 0.030395507812500222 Q 11.055908203125 0.04467773437500022 11.1002197265625 0.06335449218750022 Q 11.14453125 0.08203125000000022 11.180419921875 0.10253906250000022 L 11.117431640625 0.22558593750000022 Q 11.076416015625 0.20581054687500022 11.0240478515625 0.19226074218750022 Q 10.9716796875 0.17871093750000022 10.915283203125 0.17871093750000022 Q 10.83984375 0.17871093750000022 10.775390625 0.20581054687500022 Q 10.7109375 0.23291015625000022 10.6640625 0.2827148437500002 Q 10.6171875 0.3325195312500002 10.5904541015625 0.4031982421875002 Q 10.563720703125 0.4738769531250002 10.563720703125 0.5617675781250002 Q 10.563720703125 0.6489257812500002 10.590087890625 0.7196044921875002 Q 10.616455078125 0.7902832031250002 10.6629638671875 0.8404541015625002 Q 10.70947265625 0.8906250000000002 10.7735595703125 0.9180908203125002 Q 10.837646484375 0.9455566406250002 10.912353515625 0.9455566406250002 L 10.912353515625 0.5771484375000002 L 11.33935546875 0.5771484375000002 L 11.26318359375 0.7155761718750002 L 11.26318359375 1.0114746093750002 L 11.263916015625 1.0129394531250002 Q 11.22802734375 1.0341796875000002 11.17529296875 1.0539550781250002 Q 11.12255859375 1.0737304687500002 11.0577392578125 1.0894775390625002 Q 10.992919921875 1.1052246093750002 10.919677734375 1.1147460937500002 Q 10.846435546875 1.1242675781250002 10.76953125 1.1242675781250002 Q 10.619384765625 1.1242675781250002 10.4989013671875 1.0799560546875002 Q 10.37841796875 1.0356445312500002 10.294189453125 0.9591064453125002 Q 10.2099609375 0.8825683593750002 10.1649169921875 0.7803955078125002 Q 10.119873046875 0.6782226562500002 10.119873046875 0.5625000000000002 M 11.502685546875 0.017578125000000222 L 12.422607421875 0.017578125000000222 L 12.422607421875 0.18530273437500022 L 11.9267578125 0.18530273437500022 L 11.926025390625 0.4790039062500002 L 12.305419921875 0.4790039062500002 L 12.305419921875 0.6467285156250002 L 11.926025390625 0.6467285156250002 L 11.926025390625 0.9382324218750002 L 12.422607421875 0.9382324218750002 L 12.422607421875 1.1059570312500002 L 11.502685546875 1.1059570312500002 L 11.502685546875 0.017578125000000222" fill="#114b1e" fill-rule="nonzero"></path></g><g></g></g><defs><clipPath id="SvgjsClipPath1006"><path d=" M 0.8374066436305663 -6.03987514588759 h 10.826163275238867 v 5.78987514588759 h -10.826163275238867 Z"></path></clipPath><clipPath id="SvgjsClipPath100083c03954-9bd5-4500-b193-7bf4d2d60f14"><path d=" M 0.8374066436305663 -6.0398751458875894 L 11.663569918869435 -6.0398751458875894 L 11.663569918869435 -0.25 L 0.8374066436305663 -0.25 Z"></path></clipPath></defs></svg>